<mxfile host="app.diagrams.net" modified="2021-11-18T12:24:13.556Z" agent="5.0 (Windows NT 10.0; Win64; x64) AppleWebKit/537.36 (KHTML, like Gecko) Chrome/95.0.4638.69 Safari/537.36" etag="aLVkxpRTBLXd9oXAKr1J" version="15.5.8" type="github" pages="2">
  <diagram id="pxzaRP5JeQc49Fnztkok" name="Page-1">
    <mxGraphModel dx="1269" dy="794" grid="1" gridSize="10" guides="1" tooltips="1" connect="1" arrows="1" fold="1" page="1" pageScale="1" pageWidth="827" pageHeight="1169" math="0" shadow="0">
      <root>
        <mxCell id="0" />
        <mxCell id="1" parent="0" />
        <mxCell id="OGMspnHS5nx6zsqmEPD3-1" value="" style="rounded=0;whiteSpace=wrap;html=1;" parent="1" vertex="1">
          <mxGeometry x="120" y="80" width="560" height="690" as="geometry" />
        </mxCell>
        <mxCell id="OGMspnHS5nx6zsqmEPD3-2" value="" style="rounded=0;whiteSpace=wrap;html=1;" parent="1" vertex="1">
          <mxGeometry x="120" y="80" width="250" height="560" as="geometry" />
        </mxCell>
        <mxCell id="OGMspnHS5nx6zsqmEPD3-18" value="" style="rounded=0;whiteSpace=wrap;html=1;" parent="1" vertex="1">
          <mxGeometry x="120" y="400" width="250" height="370" as="geometry" />
        </mxCell>
        <mxCell id="OGMspnHS5nx6zsqmEPD3-3" value="" style="shape=image;imageAspect=0;aspect=fixed;verticalLabelPosition=bottom;verticalAlign=top;image=data:image/png,iVBORw0KGgoAAAANSUhEUgAAAO8AAAGyCAYAAAAMF5MkAAAAAXNSR0IArs4c6QAAAARnQU1BAACxjwv8YQUAAAAJcEhZcwAADsMAAA7DAcdvqGQAAGzmSURBVHhe7d0HWBPZGgbgL/Se0HsXVFCwi9h7W8vade1d0bWsvfeyV1177713wYpKkaIURUVFFFFRUUSRTpL/TkJQRCOg6Br3vPvMvWZOyiSZb86ZGeYPjzhgGEbhKMn+n2EYBcPCyzAKioWXYRQUCy/DKCgWXoZRUCy8DKOgWHgZRkGx8DKMgir+H2kII7GwaSesjxPJZuRSdXYC714MsmW3C1LSNQG9S4S8F1M2dIROcizeimUzCuKZQIuXiPSvbVexhyUe4qlQdrsgniEMkYQkeQuoYgl7PMVDeY9X0oIJpSNR3uMLbefDUT8VsUkff64f8GCiy0PiO3lvUA1OzoSYezmy2wUpQ99RDymxyZD3CjDRhlJiGuR/hNbAw8eQ+xEYGIFev5L7Hatau0Dn6W0kf+13SALwlN5A3hqrxHeBdfptPJL3EXz379gQ5e1SEPXg4wXgabfC6mtL0URNNqOEFD+8OaGYVKUr4ofvwJ9uKrKZ3OfK40meTHbrU+KsTOSoaUCdJ5tRkEgMobISPjzjxygjE1maGtCQ3S6osHYIRRCrKkNJ3iIKM5HJPVpD3gLwxBDlKEFZXjv36MwMdWhoynuDhbULIRapQElZdrMgykJmtio01OUPlng84lZsec8v+YhFUJb/AsjMzIa6hjq3mfg8EfcdKXPfkTzCzExAQ0Pud8gtIbeeELeeyG4WUOh3nJaKdG0daMtuF8Tj3jtJvuB/6zvmZitz/yPKlwPx8wMYMSgRk+O2obW6bGYJ+crw9kbWqmsYKwjHvde5m0lS4sIrlv9U4swMZKtrQkPumlFIeNMzkKmlCU3Z7YIKa0eOmAuvkvz9hBzZF6squ/0J7vHcF6sktz0DGeka0NSS9wYLay8svJnIyFKDpsYXwsutuCSW9/yS8HHhVZYf3oyMLG7F1JAbXiGJocL7cniJC6+8j4hbQyD+UngL+47fpSJNVwc6stsFScIr2TrLXaO/93fMdWDKXJNIlgMlXQdUEBxFm5pXMeLhzxTelRfgttgFY6OsYa7D44ZUdtyQKk7ukIqnKYAo/Q24jH+WksAGmm/jkSbvixXpQ10lGdlf2Q6eFUyVn+CFvAWEHvdfCvefHCqmsBK9wBO5z68GfWEWkiXf3ucU2q4NG34G4t/IGTNywRFoKeNNhrwFUIGdPRAnf8wHPVsdpD5KkTMsJoj1NaGczAVQNqcgJSsz8J48lz/s1uVzAXsrN/zK5k7QfhGDFHlvsbDvOEeb2wCncb3b5ynpOME8M0b+rtH3/o65XZ+yVmmIjheCUp8j3nI8QraoYWjtnzK8lXCudxx2ti3hpWIYBZd1ojccFrnBd/P3C6/8MRDDMD81Fl6GUVAsvAyjoFh4GUZBsfAyjIIqfniVdGFfuQoc+Wowc/VAWUN5JwYY5r+LZ1gGHu5W0NK0gLtHaXyPmBT/VBHDMD8FNmxmGAXFwsswCoqFl2EUVPHDKwzDjBpVMCnoHY71dUDbTc/kXkLGMP9VwutzUavCWPi/88agUr9hXXzJp6T44SURstPTkSUiCDPTkClk0WWYT4iykZmeBRGE3P9nSC5qK3Fs2MwwCoqF97tIge/YyrB2Hwbv15+eict5EYGTR4Px/KcbtIjxYFk9GHrMw0251/0xP4v/WHhzcGVsGehoaUEr36RbZRauy70G9CtQNl4/S0Ry4jO8yioYXjESj05Er5neSPg3wktvEL71L7TzKAUzgR74xrYoW3MMfN78PKf7sx95Y0aHqrA30oeRQzV0nnsezz7ZmBDenh2G0joFvz8REq+swuBG5WBlIIBJqVrotTxIfukbBfaf7HlVK47C0StBCArKnQJ3D4Sz/NotxcczQocttxAXvQc9zX+mj5jwbO8gtP3LF7pd/sae0+dx+sAazOhbC+aqP8lfyqUHYWb7ntgl7oDlJ85g35SqiFvaFd2WR39c6CEzHEum7IfY0vTji/PTr+DvocvxtMZEbD15Auv7GsB/cjeMPZkst8iAwpL8hVWxZIfQRLeyNNr/LR3sakJN1z4hkazp55dNgWNKk36jVRT/2YXOogvDHMhx2EmK2DWSmpQ1JYFxKWow5iQ9ybu/OIlCVw+gus4mJBCYkXPdfrQyOInE0kYRxa1sSHqamqQpmQTtafcbaQNHSHcX1SLdvLb8k64Hzb8plN5L/NyHprWrSS7WRqSnq09Wbi3orwMxlClt5eQ8opNTfqfKtgakk+85dKvPpSjpUwgp4fw86upZikz52qQjMCfnFkvpRo6kLYOO9jAiQdvtlJS7wAWIKHZpXTLwnEnHd4+ixqW592jsRI0neFPC+89LRC/8/qE+dUqTmYBPxo41qOvcM/RE+vxEmUf+IOMqU+n40Sn0e0VrMtC3pErdVlP4u9z2LxPTqz2dyMymJx15nbeAWRQ2tSLxy4yhwGzZLO493lvRiMwrjadd8+qSfuWZFCl7fYmMtLQP66TwJs2rrkcOwy9yz/Tj5IRNo8pOw+liyjHqad6AVjws+ZSwfd5PEJJP/Ykuq8TotzcCN/Z1QNrGkfjbL4trE+PR1n7osPwdOq65iIiwU5hfPQZzOg3DgReS7boSLHvuRFR0NG5s6gSjjzozZdj324vIqBs4P6kq1O37YW9kFKKiuCnyIAY55/YfJFKGed2hWLznDPwDvLHst0zsHjICO55IxthixG0ciN5rH6PiXxuwb98KDPUwgLJVJ/yzojvsuaegxP0Y0XM1kpstxamgcIT67sdSr5owln7TKrAtZQdx6C5sCEmSW85GFLMGXvMS0HzJURydXwNPVo/E/wJz64Lm3PwHndovweNas3Dw4kXsn1oFj5Z3RafFN7idklyi+2swaHIM6i+9jJtXlqBixCQMWBwht0TSBzmIDAhFTtVmqKcv+fBEeHHpf5i8IwbZCddwTfoZcJ/Cs/2Ysugx2swdg+pa0lkf0eB2hT6s2ErSonnqX6jNpbBkIS66X6Dn1dbUIm1tbdmkQ9aDfGRbZUnPa0+6pXrR4byuJucqTXbTp0ar4kmUE0EzKptQ260vZD0tJ+MMDbEzog67k2UzcmWd9yI7/fw9bx4RPVnblAwqTKWwfL2FXKn7qbOBHXmdlyxhJh3raURGfxyi1NxWyr48kkrp/0Ybn+cukfDWfKrBL0NeZ15/WMb83kXShh4VyFjHjNzbjqbVZ2Io5f0dc3tevsVvtO6erJuTvf/Gqx9zrZnSkYlh07X5Ri45FDW3OtczjpX2jJKe10BQmxbcyJC1C+nmvOqk7zGfbuUOLuQTv6Yd7fRze0nu36HL2lNpaw8a8r8RVEtQjiaGcC8gfkNnvMqQbcdd3Gggd3kL9rz5pYVOpSr6bjQhKG95fgzW834nqhX/wrHgEISE5E7nptX6qOKhiltj1M/bV1WphGnBj3F8gBWU3t3EjdhU+P7lBnMzM5hJJrs/sDsxG6+T3pbMH6vkPMHZv/uhWTUXONhaw7q0F05nCiWVazkqKFOxHBBxBuefcD2h6BWCfYLw2sIFLtKeiuvfy3TDiLY87OroDo8Oo7Dk4DU8y19MW8cd/bdfw52gdehteRvLu1WGW/N5CMh3VFzZugY8HWSfCE8Hejo8ZGdzTyJ+yo0UkmFTvSo+7MqrwLlaZQhexOB+iuw5tMvCvXReAVdlWEvqPT9/8pmDTgXllq5Vzr6LrX3ro/M+C8w6fwEr/3AFtwjcsvC4Xd1/MPWINcbM7ZxvGT5P9PQoRvRZBwxYgfHV5RYFVlj/yfDytMzg7OIKV1fJ5ILSFjpfGFIpQU1TG5qqPJBYzAVUgFZLA94HPyTkGq7fjsLuXly4ZY/4ekJELe6ErmuT0HDOPlwIDEaw33w0fF+4TAn6NtbQe3sGw9xMYWzqhE4+tpi6aSI88gp6K9mg89ariDgxB62NY7BtWH241x4P349OWSnDoFxrjFzpg4jg5ah+byGGLy3CsJZEkgq90hAVRNyyqXy2qiIhO4sbUKuqQU3+h5yLpw1jY0083TkL2/lTcfb8cnRy1oI4IR7PYAYro1hsmrgBvIEL0N9JXg3JXOJn3hjVZhACKi/DgTl1ICjstRXQfzK8X4un5whHkzTce5gGC1tb2L6fbGCq++WV6QOuZ1FRAWWk45MqruIXuHIpGtrNvDCiSXnYW1nCXEOE9Lz7iRNwZMNp2E24hIfP4hB99wkeR+7DyOqCAhsfbdjV6YnJa04iLORvVIrZhE0X02VtH9NwbIrGLjw8e/pMfknXPMoWcC6lifhr4Uh8P8wQ4m5IGFIcK6DcZwsqpyE8JAoqrhVQutAj+qpwr1YBmvy6GDG1HbiX4ghx5+x5PLLzhIfGFZwJTcaNhbVgID3Np4NyE0OReXsBaujpwXNhtPQ9iF+cxdi2/XCuzGKc2NAFdnLrMCs2Ft7iUK2KP7qXRszy/hi69gzC78TgXlQozh44g9sZkjsQ0p4/RGxsLB48S4FI8tMYcbGIffAYSZnSZ+DwYFiuHCwSDmPJcu45bt1EuF8AoiXnWZX4sLDQxtvgYzgefhMhRxega9OpCHpfSD0HWdk5eBToDb8bsYh/dBe3ouPwKt9WQBTjg017fBAQdgO3b4fj8plgPCEr2NtyXbP4Gc6tXoRNB73h6x+IgIunsH22F/4XoI8mLaui8F/j0Eb93l1g5j8HA+cdRciNSPjt+AuDVzxFfa9eKJcXzqxYBF+MQMyD27i8fjjG7tdAF682MC6091OCWdvBaKt5ChMHLMKpq9zybx+NQcueosGI/qhg3AbL/D+c4gsKCsTB4eWh7tAX2wMCsK2PA5Te+GPa739gc1oTeHU0wL3z3vD25qbTV/AgteDWUsHJ9n2L7pc/VWRP+u120seHn/LJfkSnZnYhTycz4uvqkaG5Pbk1nEq+0lMh6dxnIvj4NJBk0nahcUHvz3MQiV+S38JOVFVyukdbj4wd29GG2NwFynlwgIbVdSBDPQFZVWhLkw7sodHlbWnQGckBKxE92tiKTAs8v5ZJZRpyWHJASfL1LKAm3P2N9bRJS8eQ7Kv+TuP23Mo9wCV6Sge96lB5ezPS19EmHQMrKlurE03cc5PeSQ9ayU4VvT/txBFG00JPA6q7NFb2PafTnX1/UUt3a9LXFZCFaxPy2hhGybKDXtIDVtpGZG4uIB1dI+7129OUo/ep6IeLxJQSuYmGNChDZgIBmZauSwPWhNL7M0cf+fSAVc71WVRF5+PPRzrp1qT/3SnsiFnJ+REHrP5j4VVwqedpmLMR1Z59jd7KVuact9G0ti23IWmwgr7D+lFs0vBaDiSfH3lS9SfEjjYzH6HUx3j8ihtcZrzAw/jnSHzxBPevByI4NhPm7m4wZd/mfwr7uhUIz7QzFqzuDf3zI9CsghPsS7mj0aBtyPp9M47NqSP/R9aYX1LxC9CJnuDs6oMQtR4Cm5DFuGo3DL2q6f16f73CMN9AnHABa/ZmooWXA8KWBMFqcB94yM7FlxRWPZJhFBQbNjOMgmLhZRgFxcLLMAqq+OFl1SMZphAi3Pq7HsqN9MW7s8NQptlKxH6HkBQ/vKx6JMMUgiDOyUR6tojr7Lj/z8iG+DscFmbDZoZRUCy8vxQhImZWhmHj1Xj8DQMiSn0Iv4OnZRdbMD8rFt4SJAybigq6unCbFCorCUNIPtQdFtp8NFwRpzDHBoSRKzFg0DqEfXLN4o+QhjsHJqF9NQcYCwxgXaE1Jh6Le19iR3LMZWnbanAy14ce3xSO1dth/IG7+C9uZ1h4SxClpSJdRxuvTh5BuGRto1c4vT8IPD1lpKemcVFmCiN+uAOjxl+Cce/lOOy9DzOqPcW6vr2x8q7samOeLsr+Pg4r95/BxbM7MLnqc2weOACr89r/Q1h4SxClpSHbuQFqi07hcFg26Pkp7I+sgbb1dLjwpkvD+y7oH3Sr7w57UwH0BOYo22AINt9IzX0C7h7PN7WEccNluHp5CXrWsIeRgSUqdl6BsHcfoi+pazy7W02U4p5DYGyLco3mIFBSHy+PcgZubRmCuqWMoW/mijbz/PLVLc7A3X1j0LqSHYz0dKBnZAP3AQcgqZ+XfXYwrLW1wG+yBo8zzmCQlbastrU+uh7MvZhf/GQtmho3w+pwX/zdrTrsDA1gVakbVkekSdu/lZL9QBy66Yu1Q39Dbc/G6Pe/CWiiFAnfgFe5Gz9lZzTt1QFNa1dD5epN0GdyX1TFYzx8wsLLfANRRhoy1aqibVMxvA+H4uHJg7hdpwOaG6tJe14xt/qJxXxU7jUP205dRuD5TejDP4O/Bq346BcKhHeWoesQP5SfewFRgfNQ9uoMjNuWO+ymJB+MbN4NG1/WwtRd53DRezOmtnWCZr4/m82JWIwha7LQdc0JHJhYFlELR2OVrCq56NZy9B3iA8HgLTgfGoag09swp4srtLk2tVqz4B8VhYitf8BcvTbmBMiqW0aF459m+S57EN7E4s7DEVLlb1y86Y+Zpa5g2sSd37Sf/YESt7HIV29KWQnK3H/qmp+WCqDMZ7iy9QBu27VD+yq/aLmML2DhLTGUG1BVHXh2ag3lU6sxc38sGnasB0MNdWSkSXpeHvg1++Kv3i1Rp4o7yldpgZHDWkBwL/Kjg0OUaY6e23dhbAMHmJftgN+rAXej7kIIEWJ3LMTezPZYuW8BejWqiopVG6LzsM6olG/d5mnXw/yjGzG4sQcaDRmKFoYPcP12bs8oehrHhcwI5WrVQIUypeFapT5aNXTJLfCmZQI7B0c4WOhBRUkLxnYOcHR05CZ7mEnvIEOZsOy7EztH14W9uSs6tK0M8d0o3Cu8tmsxifH44C5c1miIdvU/lPqhlzvQ0dIQ+kaOaLwkGa1n/AlPfsn+0b8iYOEtMVx4uYBCTQ3alTqgtdoJHIprjI61daCuoYYsbtgs6VzFiVewelhreJYrBTtrazh024VEsQiifD2vkklNNHaX9IUS2mi3LR53lzeGGjJxPfQmVGr+hgYG8ldWFcdaqGkh+2ol1R+1eRBmc8N47qZa7YEY5fEQs2uXR4NeU7DOJxpvijviVLJA7cbl31+CyO+8C49vLka9wuvoFAMhJXQBek6KhOe8v9HZ/MP75Rm2xXL/EAT5n8Gu8aVwqV9DDDj03/tjIRbeEkNIkxyUUlWHupo7ugzpgN+G9kRNbjyrxvW8lJGKNNEjbO7XDnNul8f47WfgHxyMgNUdYFJIp6Gsrg1tdUmBOzGEQjF4KqrcQPIraVbEqFORCN7xFzwoEIu6V4N765WIyr/PXFzKGtDWVv/6ZfqM1Ihl6NJxNZRH7MPG7nYfP7eSLswdSqFsxdr4fcwGzGudgZPc5/kr/h7Rl7Dwlhiu532XDp66OiTRchm4BXtHVZEWdVPX4PbH0tKQnnENvoFZqDlwPNpUcoS1pQV0KePDaZBCacLRyQpZYQGIfF/Q7isoG8C1xWDM234RkSe9YBC4Fruv51sKVVWocMuVkfn1aciKPYG/Jy/E8fvF3yqk3ViFbu0WIXPgARwcVxV6X9q4cUP4d+9yoCEw+Gi//7+AhbfESHredKhy4f14HeJBnZtH6VzPq2IOS1Mxrp88gKCbYfBZMQDNR55EvgPJhVBBhR79UPn5evTvswhHAsIRHnIOe5fvQXiRMsINRcMPYfPh8wgOv4nbN0PheyEKSep2cDT/0LepOLjBRS0UG+buRuCN27gRfB5X44sztk6F94z+mPHPTPSf4c3dKjphzCb0aDsREc59MaBiMq745FZ/9Dl/Ay+5cbH45Q34+l7BtfAIXAvwxqaJ3TH5sj0GDGmEz1ae/YWx8JYYrudNz+DCq/pJeCXDZqS9Q4aKB0Yv+xOlwiahWa3fMOaUFoau+gsVinGgVKXMcOw5PB0eiVswvHU9NGg1EAtOxyP/jyJ8SfZTP26F742W9aqjas3WGHPOEF4716K39YdVgWfcEQtW9oLBpXFo4Vkd9dqPxO67RR8fSEYI7g3rwkrPCnUbuhWrPE9G2GlcfC5Ekv8i9OvQAR3ypt6rECbkwvvoKCZ3a466teugSadR2BRTFpNPnsJ0j8/8aNEvrviVNHJCMalKb2StCobnaidsqBsO70GWbCvAMO8JETW3Fto8nY3rv+2D60IXXPAdjUJ+5KHYWOYYRkGx8DKMglKewZH9u4h4UFbTR6kqVeBooAGzsjVQzrzgQRqG+W/jKauCb18JVZ2NoWlSBh7uliV+NJxVj2QYBcWGzQyjoFh4GUZBsfAyjIIqfnhZ9UiGKQSrHskwCopVj2QY5gtYeJkSRYlb0FogKZ0jmQRouek51w99SnR/I353dECzFbel1zkzxcfCW2xivIk6gKntysGIXwMLbhVY9YQJODevK2o4GEPf0A6V20+Dd3xeiQkhwqa6Q1e6Yn+YLAf64P1FQel3sH9cW1SxNwJfzwj2lVvjr73RkFaQSjuALvofPzZ34qPesgdFOPaQDd/hDtCWPU6bbwK7is0xbFM4UkpoWMcz6ogNN6IRHbULvSzlr1707hmeJr3C04QUdszkK7HwFofoIQ4OqwO32iPhk6j8mb8qy0L4wo7otiEFzRcdxZlDs1HnxXr06LIQEfku2VOrPxeXg4IQJJ2CcXZqTel1v5LHB83siCFnjTB0qy9CQ05jeets7B8yEGsk1RE16mDy0ZM4eTLftGcMamjrwdpav8h/5abmORXnQ68i2Hcv5jTMwKFR/bE4ooRq2CjpwNTGFrY2ZtBVkc37DJWKk3HpwUMEz/XAf6/6VMlg4S0OJQEEDg0w58J1+M+t9+lF4u/OYMXah6g3dzPXM9dEtXo98L/1I1H69iZs8v9QpEqJb4Ny7u5wl05ucLWW/Ti5+DnCw57CtGl/9KjrhtJlq+C3Yd1QhfcktzqisinK122ABg3ypnqwfxqMKPM/4NWi6OHl6VjA2dUV5Ss3QPdpg1BT+THi3ldfzMEj7+noUMUOhgJD2FZqg/GHYpB37f83V4/MPg8vO0lVSh0YWdnBc3oYNx75IPvCMDi4jsZB79loX8EK+vqWqNBxGa4W/aLn/wwW3uLg6aPR6FnoWdnosyVfcqL8EZxWEc0amEiDJH4VhGWTNuJm9iuEXX1Q+L6dkjk8PO3xbP9cLLuSCKHwOS4tWY8gLiwtK32mf0oPwIqVkag4ZDCq5Su4WFSUkYCAdTtxVdAYLavm9v3pwTPRYdAF2I47gODrV7BzkB5ODuqCuVfzDR2+pXqkWi3MCuCG1bd8MUlOxUd6ug1e426j0boQ3AmcjTJhMzFx+yM2vC6AhbcECV88w0sNC5jrAymR3HC5XifsMRyKQZ7KSHz+6n14M4/2gonAGNZOldC43yJceJrX96ih8qR92ND6NZY0dYWTkzvaH3fC4uNL0Fy/YL8qRsL+JdiT2QZ/drMt1heZddYLdro60DEshSbz4lBv9ky0kRZ4S8GZ1VuR2mkB5nWqCifb0qg9YD6GV36II4cjP5Tr+abqkRowtLKBra0lDNRlswqiUhi8fROGVLeEqUsXdOY+v9zqmUx+LLwlSXKNh0oOHuwZgkbtNkJn/Glc2tAH7nweeFw2eFCBy7BDCLkagiA/H+xY8AfMIxagY6dFiJKtmcKX0bhy7THUKrRG2waloff4PNZv9cOzgt1OdjjWLPeDdZ9haFLMsqdqnpNxNphbhstHsaq/GS4ObYk/vZNAwlhcv/kWT7a0h62ZGcwkk0UVTA7KwutXSR96vu9dPVLFHuVK51XGUIaGlhpysoWfPWr9X8bCW4JUjIwheH0As9coYcSpi1jXwxU69AxPEgBTSzPph61pWgou3P5mObcqqNf+L6yb8zu0b52H31MuGuJ4bBncHwdNp+PChU34Z9NFBO1uhderB2GK99vcF5EivDz2D7Y+q49h/d2KfcAnb5/XrWoT9Fm4GeOrJeLogSBkSf64QMxtYIbuQ1BICEJkU3hUNEIXNIC8jvJ7VI9kCsfCW4JUXKqjorYOPIdORbeyuXWXRXHncOaeKTy5fdlPV27Cu6TXyFI3hJHk6FfODa7XzUL5li3hIO3FlGHeuCsambzB7ZtPPuwzC29j0z8+0O40HB3y1TP+WpIeTUNTHUrK1ijloIz4uwnQlhwxts2bbGBl+BU71cx3xcJbLEI8v3EJvr6+uBTxFNnid3gQehG+F/0R/YrAM2qJwZ0N4TujP+Ye43qsgL2Y2O9v3K0+AoM8JGnMQfy1CwgIDUdEeCC8N/yFLlP8YD9wBFpK9mlVnOFeVgnBa6Zh45lQ7j7+OPz3/3As0SJf+Alvzi7F+jvlMcirNr6m7BqlJuDerVuICr+MA3P/xD/hdujSzRNqPCM07/kbNM9MQs+p+xAQdQ8x0REIOHUEgZKRQRFQeiLiHsQi9sFTvBUSMl4+QmzsAzx6KTvanv0aTyTtsY/wKpOQk/yU+3csHjx7xw5IFZfkYvxiyQ6hiW5labT/WzrY1YSarn1CIlnTry+ZdrYTkKamZoHJnPqdysy9S9ot2vVnU3I1FxDfpBTV7LWUAl/mfUJv6XAfGxJoaZIW35RKebSj0RtD6X0zJ+vhCZrW0YMcTfRIR8+EHD3a06SDdyld1k7C+7S8gSFZ/XGQXoll84osiy4Msyct6TJrkY6hNZVv2IcWnomnbNk9SPyWIrYMpxYVbMlQT5cEJtZUuno32nBbKG0WPV5DTfTL06SrOdLbBWWe6kfmn3w+WmQ/7AL36kQ512dRFZ2C7ZrEb7OVXnLvJ+u8F9kZdKb9qbnPxz0jeQ+wINM+J7l/KYocujGnOtkPOUsp3OdhXWcx3cv9+EoUqx7JMCWOVY9kGOYLWHgZRkF9RfVIMYQ5GrCrXgOO2kIIytZGRSuNIv9pHsP8F5AwBypWVVDTWRcivdKoVcUGWiUcElY9kmEUFBs2M4yCYuFlGAXFwsswCqr44WXVIxnmC7JxblhZNPwnGo83tYVD32Pvr4UuacUPL6seyTBfwOUiOx2Z2WKIhZlIy/x+V0OxYTPDKKj/4J9HZuFl9FUEX4vC3fhEpIl4UFJSyj1PTWKIuIGEGt8CDmXcUa1GRdjzv1CIiWE+kQWfgc6Y4+iN3YK/UO3yAMTtbv/+2ueS9B/qeQlvQ9Zi7Mg52BmRDkvP9hg88k8MGjAIXiPHYsLEsRg5bBAGDhqOYb1bwI3/Ar5rpmDktAOIeV9C4stEz3yx8A9POJrow9CmItpOPoG4vMeK47B3SB24WhtCT88QNm5NMHhNKF7n23TS2whsGtYYrhYG0Dfn9puGbkJkkWs3CRG1tgtqlLaAvh4fxvaV0WrUTtxMlTVLCfEybDvGNneGvqAp1j75/C4PvfbGQCcdaOl9pjrmF4ie+2P5wIZwtTSAwMQJdfquQmjyx8svTLyKLaOboJTg07KwwsiV6FDdGRb6euCbOKBq2zHYc1taN7No6A3CNw1DMzdrGHCfgWmpGug0wxuP8n9/3H2u756K7g3cYGfMhza/LpbGFv09/lQkPW+xKOxVRVl0YfJE8s6Q/FtMb06Pot97dqOO3XtQqyYDacpUL2rRqi/1bd+O+vcYS4ell+yI6MnGCbQ0ugiXhGRdp4W1jcm26VQ6EBBKl3aOoTrm+lR1+lWSvqQogfz37qaTF4PoWugl2j+zJdnpOtJwX2kr1/6U9nSxI+Oqg2nj+RC6cmwhtSulRw59jkmvtimckB6c30H7fS5TyLUQOr99NNUx06MqMyNIev1P9m3a2rsqmfNtyNPThfT0mtCax5/75tIoaGJFMinlTDZ8D5p/s6iXw6SS75/lqEybGbT7fCBdPjSLWtjqkP3AU/RG2p5FURt7UCUzPtnV9KQyOnxqsfEZ9018ILx/lrYd8KHLIdco5NxW+rOmCfFrzKeiLYKYkk/0I3sTTxq19wrdvHOTruwdRZ5GJtR2a0Lu64iT6fKEqmRoWoV6zN1Op/yvUvj1GEqUXO5UYiRXQXGf8YKbFLe2KZl0PfjhirAS9h8Kr4gebRxNU71v0Z3wi7R33nCav+lvmr3FmzaMn0bz58+g8avP0f7pM2jHhnE0Yct5Co+OoK1/jqcTuWvfF6V6DyBb07a0NSFvdRTSvcW1iW8zgLzfX96WT9ZpGmQloNZbEqUrVs6N2VRVUJVmRuRdnCempANdyVy/Ga37bMgKk0y72gnIJO9SOm7jcXz+TNp3I5nSj/ciY/7nw5sTvYTqmVWlyTtnkad+ccLLyUijtPdPmUMRMyqRnvNfFCB9S9yG8PBcmn3wJr1JP0zdBJ+G92NiermlNQksB5JPkcKVQ2HTKpJ+rUV0N2+RhfdocS19qjQ9XLoBy7kxl6obuNPoS2++8Lrf6seF9z80bFaCTa9xaEt3ce+1Nip1/QN6ESmo2KQCypXTxru3SnAoZY9adZVw5U1rDKmrj+T7cbAYOB4t+bKnkEuI2wHBSHFvioamkr1nwuvQlZiw9jqyX4fjakyB0mnCZETt2Qk/tcbo2MCQ298mvAy+gvsW9dHENbeoTca9fZi88DzeZF5HyPVs6bwio2wkhm7F3ghLtO/gkVsTWskcrSZMQ6fyAvn7SuKn2D35H7zoMB+jK2sW/+/VNbSgle/JlZSVoaShAQ3pEynB8vdJmNLeFfxC1zpC1vNgbNl/A9bt2qN6ker8qMCpZg0YRm3EzK3X8UachbgT/2DHXXs0b16WaxXh3qkTiCnfB161+b/E3+L/h8LLUTFFpRZtUUc/HMvnnYP92FHQWzcOR/m/46/xveAcPhvzknphQrlLmLviJswatkVj16LUQxbhRcILqJhbwpj3DlGbe6N++63QHTIEdVRe4cUr2b5l9kWMKmssrUVcfXgIyo+fjDbWkq9AhGdPngNm1jBXykb8yXFo2ngKnrQcjt/NM/EyMeWjfUP5UnGopxWM9A1hV28W4htPxej6ko1DUXAbnNOzMDeiDmZOboBi1rT7VOpV7D58H/Zt2qJ8MY75vdnbFZaG+jB0aIgFL1pg+qg6+KRwphy6jRfg4GIP3B5fG2VLlUaVARGot+UopleXlPDJRsztWPCE17C4gyfK2lrAyrEyWo3cgaiPjgsojv9WeDmUeARTVgLDVkxBc7NrOPKqFSa2coKBwAb1RvWG5vmL0Gg6GUu6J2DBHD8UsZS4tHCkcs5DHBjeGG1Wq2LkqcvYMqDSxyFQ88Ck08EIuXIRhxY3RcLMZmi77JaspCqBx0uC/9w2aPjXXbTYHoCjkxvColgVGbXR9G8/BAf749zeGah4bTga9diB+KKcis8IxeKpp+A4fhbamX1jcoWPcXB4X2xRG4oVYyrLfg2iaPRaLoF/SDACzu7GFJdADG7YB3uLWIIHWQmIunIdiQIPtG3tCXuVaBxbvQfX3nBfDmXiXVoORCk5sOowG7tOX8Cx5R2hdHwYuswI+G5/SPE9/efCmxV8ATmt/kBpSSlEngbUst8hLW/dyEpFhpKmtBqjdoUeqP3qDK4X6UizEgxNDPDu6Bwsyx6K4xc3oI+bHsTPHiMBZrA0yyuhoAljW0c4l6+O5gP+wfIBFgjfcRC3hEowMjWC8Mo/mBXRAJv9D2NCXTMoZybgaZI2zM2LOszjQcfMAaXKVEDN1n9izcJOULqwA6cKXfmFuLN2IrZqDMX8Pg7fVgVSlIATf7aC11VPrD4wEzU/+VmJL1PSNed2X8qgQq22GLV+PtoJT2O7z4sijDyEiPqnN/4MqITV/j5Ys3Q3AgKXo1r0HPSfH4xsnjq0NJShWa0nRndriEply6JyyzGY2csJCX6Xilhz+ufynwtvToYY6tqyvkC1BnpVCcC4mTvhffoA/jdqF0z+aJ47TFPSho5SOtKLNF5VQdlqFaGrVQ2Dp3dHOV3JE4jx+NwZRBt5oOZn65+IkPYuHTyBAQRKSjCvXBnWag7oMmUEaptI7k94e9kHQbxqqFWpWN3ve9lp75CtyodAu5AAiRPhdzYMyRFzUEP2C3+6FachnNvfnlVVF3p1liCmKGdTxM/gPaoVBlyugOUn1qK99bfVfaGsNLzLUed2M7QK33hRMq4FRUO5eis0Mc99XXWHjuhSUx1Pb97Ga1KDQ2k7ZEbfwsP374Xbt87M4rap2iV+re2P8N8Kr+ge9pzJQSWHvJVKFWUHrceS9ibIeKeFutM3YWpNXVmbJkqXeo6TZ14VYavPg36zwehm5o9Z/WbhSHA4AvdPRr/5Uag4fDC49QdIu4/A8/4IDY9AePB57F3YB17bRWgzrCNsuW9BtUofDKz8BGuGjsLWy+EI9V6KAWOOQq/nCPxuUoQ1i17j1iVfBF4NR0RYIHy2TUOPsd4w7umVW5mSGxg+CZdVvox6AZH4De5yw3ffi0GISTFC+1UBsh8+y50C9w1BWXVnDNgdgIDNPWBbWA651784sQ167hSipVc76Eafg7e3NzedRvDD3HO1GY/DcYl7fd9LUXgpFiP5TiC3PBcRfP8t9xkTkm5yy3flKsIjwhDoswVTuk/Aecs+GNK00COG3FfAR7nytsg6twRTdvjiWsQ1XNw9HcsuiOBSqyqMeCoo36ELXO+uxrj/eSPy7m2EHJqOidtfo1aPtni/SigS2VHnolPk6pGih7RjaAfq7eVFXkWYhv7RmSafTS7yaYX0O3tpVPNyZCHgk7GjJ3VfdJleyD4c0ZPN1M5aQNpa2qRnbE8Vm/an/52O+6giojDhHM3tXI3sDfXIwLoCtZ54hGKLWjIx5wb9r5456WlpkY7AjEpVa03D1wTQs7wij6J4WtVI75OqjZraztx3+b525HvCO/+jmsU5VZQTRlMr6Hz6/Jp6VHdpLLeOiCh2aV3S+6Rdm1wnBFM25VD4vJpkpqdFWjoCMneqTm1HrKcrL4pxqir1Fu0a3Yoq2RqSrg6fzEvXoR7zTlP8+7eXTQ+PT6I2FaxJX5d7DZdGNHhtKCWV6HmjH3eqiFWPZJgSxf48kmGYQrDwMoyC+orqkVziVQRwrFIVjvpqMC1bA+Ut1It4KoNhfn1KSiowKu2Bija60LJyg2dZ4+/SS7LqkQyjoNiwmWEUFAsvwyiorwqvWCSSFp0jMff/bNDNMJ/isiGShENaneX7hKT44c0JxZRK5THW/xm2t7NCz2NZsgaGYXIJETW/JpyGncc7n4Gwr/9P0f68tJjYsJlhFBQLL8MoKBZehlFQLLwMo6BYeBlGQbHwMoyC+vpLAldegNtiF4y6ZgB9dUDV2Qm8ezGQV+dQSdcE9C5R7oXtyoaO0EmOxVt5FVt4JtDiJSL9a9tV7GGJh3gqr9wJzxCGSEKSvAVUsYQ9nuKhvMcracGE0pEo7/GFtvPhqJ+K2CR55xR4MNHlIfGdvDeoBidnQsw9eXV7eNDkEzLeym5+ggeBEfDmldwPAJYuAjy//Qpyz3qYaEMpMU3uD8+p2FsDDx9D7kdoYAR6Lb/4QWHtquYOUHr+AFly7qCkYQJeViJE8tp1S8Eo4z4S5a4jJuBz65jcdVTVGeXUYnAzjSBMTQLaH8DN3/bBdaELLviOxmcLqnyDb7ieNwwTTG7h4Zvcd0I8nuTJpP/+HHFWJnLUNKAu7woGkRhCZSVuFfk8yshElqYGJHUAP6ewdghFEKsqQ0neIgozkck9WkPeAvDEEOUoQVluJUTu8Rnq0NCU9wYLaxdCLFKBkrwvmLKQma0KDXX5gyUeT1KHW+4HjLS0HGhpa8i5iESEzEwRNDS+XHJH8tjPf4TEPT4b6hryL1IRcd+xMvcdyyPMzAS3AHLXgcLaJX8YIVRWhoq875h7fAb3eHnX1vJk66DcjHHrcJYqtw7Lews8JW79Im7jJVkAHlSMneES/Recf67wdsHDQRsxpNyHj5GUuPB+4S9JxJkZyFbXlNXw/YzCwpuegUwtTbkffGHtyBFz4eU+XNnNT+TIwiu3RjD3eC68SnLbM5CRzq0YcoshFdZeWHi5FS9LDZoaXwgvt2UisdwPGGmp2dDSkVePmQtvhgjqmmpyw/dlXK+ekcVtnORtHLh3SGKocCu4PJJwEhcueR9xYe2S8OWocOuQvNUwg/sONL+wjnCPF3ProLwlpKwMZKlw67C874h7b8pcnET5Nm85IYvQ42Q9XP4pwiu8gX/a9cbWRx8PnlTs7bghUZzcIRFPUwBR+htwGf8sJYENNN/GgxtxfBaJ9KGukozsr2wHzwqmyk/wQt4CQo/7L4X7Tw4VU1iJXuCJ3OdXg74wC8nKct5goe3asOFnIF42kvkEt+ILtJTxJkPeAqjAzh6IkzuuJ6hocyt3mrLccOlww+rUt/JalWHqpIeXMclyhsVcj6OvCeVkLmCyOQUpWZmB9+Q5t3LLocvndq3eyt94FNKubGwN3ituWC5nAXgq+hALk+U+nqdlA/3MeLyWNywWC6Ct9EZ+OWBVezirxuFegaqFquVH4dD23tJaZSWp+OFlGOanUMLbAoZhfhQWXoZRUCy8DKOgWHgZRkGx8DKMgmLhZRgFxcLLMAqKhZdhFBQLL8MoKBZehlFQLLwMo6BYeBlGQbHwMoyCYuFlGAXFwsswCoqFl2EUFAsvwygoFl6GUVAsvAyjoFh4GUZBsfAyjIJi4WUYBcXCyzAKioWXYRQUCy/DKCgWXoZRUCy8DKOgWHgZRkGx8DKMgmLhZRgFxcLLMAqKhZdhFBQLL8MoKBZehlFQLLwMo6AUM7xp/phUzRrlhpzAS5LNKwnZpzHIyhDdj2bJZnydrKehOHYyHK8/s2yie6vR3KEKpgRlgd54w8vVGd32PINY2voGu9obwmmUH3Kkt4tLiIiZlWHYeDUe5z4h8wsrfnjTH+D0ol6oZqELh+G+yJbNlsrxx2hnHWhpaX2YtB0x4vJH95JPnID1zfkfP56bjHoeQ/44UfZrJLxIxsunicgsyfCWCBEe7ByJvn9fQtJnAsTTtUXFatVQ2kgFPHUzuHD/drPSAk/WzjBFVYzwEl5emIkW7lXQY8sDQFU2uyCeLpov8kdQUJBsOolxleXd+XOUYNphFQLePz4Yl+bUg5qsVYKn3wYbouJw92A/WCvY2EHJvCXm7V2NHk7KgGYleG3ZiQm1+Sy8TLEVY9XnQU9ggcojDyPi6np0sOJWvs9Shr5dObi7u+dObmVhqVOcVZMHFUNHlM97vLsbytnIVu58PTPfzAZ2nbbhVYGeV5zohyW96qKMhQC6uvowd2qA+dfyD0JFeO63FP3ql4WFPh+GVmVQe4x3vudRgdLrACzuVg22hgawrtID62+ky9o4wsfwntEJNRxNwdfRhYGlC9qvv8c9qxBhU92hq6WLyjMjkXFtCtx1ZaMHflOsfZLbDb8L+gfd6rvD3lTAfZ7mKNtgCDbfSJW25VFVeomzs9qjso0hDG090HfzLWTI2iSyH3ljdreaKMU9h8DYFuUazUFg/qGJcgZubRmCuqWMoW/mijbz/JD0/v3l4JH3dHSoYgdDgSFsK7XB+EMxyJS1+Y0qDefh+3B6XgdUsjaAvoUb2i8OxtufboTDgL6GMJoWevLJftgFypLNksr2o1HOltTvVKZsRjGJntK6ZvpUauRlypbN+piQUp4/ori4GNrfz57022yll2JZk4Q4mY71tiHzBpPpaMgtuhsdQYE+xyn4iUh2B6LUoClU1cCUagxdS6eCwujapcO0bps/JUmeJ8uHBlrqkam5I9X9ayddDjpBU+ubkmGLDZT7FCJ6srEVmdq3pb99wuj23VsUdvkUeYe/JMnDM1/FU+z9u3RmXCUSVJ9EF+7dp/v3uSn2Kb3JkTxeTG8CNtGiLSfp8tVIunH1FC1sa08Cj3kUJZS0J9POdvpkZGlNjo3G044L/nRsRhOy1K9F/7stvQOJX3nTkLJ8smk0jraeC6Xw0PO0d8VeCpN+ETkUPqMS6ZqYk13lPrTmbBCdW9qe7PUq08wI6QJQWtBkqmJVk0bvC6V7cXfIb213cjGsRFNCJd9ZNl0eWYr0DEzIpcMKuvL4BUVv/4McBXVoSUzu6zM/j5IPr5M2aWrrEN/YmpwqN6NBy/zoWVG/d2l49UhTS5u0tfMmfWqy+hEXm/xyV7JPwit6SMvrC8i+z1FK/PgBucQvaEc7EzJts5kef65dGl5dch95kV7Lnjd5VzsysPeiC7JwXJviTnz3MeT/Nv8L5yek2wtqkEHtxXSvCO8767wX2Rl0on3vJLck4RWQvudMCpXe5mQF0F9lBFR/+QPuMxBSzD91Sd++Lx2Xbm0Kyg2vnn1X2pP3BrMukJe9PrXb9Ya78ZYO97CkMqP96f3mVfSY1jTRJ9cJwdynKgtvpYkUlPf6mSeot6kZ9T35lRtk5rsp2T1G1coYeyoUV0OCcPnUVszuwEfA9PbovloyrCwqyT7vagSGhCBEOgVgXWfzoo3vlWzQYWRX6B3rgQpVf8fwv/ci+GnugFAq5zZCI7JR6bdmsJT7hKooV7cG9GUjfU1dXahk58gOzKnAvdcoNE1bj9/caqHLmGU4EpFYrCPD4sQrWD2sNTzLlYKdtTUcuu1ColgE0fsPSAmG1eqhgo7spqoDyjrw8OzxM+4zzMT10JtQqfkbGhjI3xVRcayFmhayN8jTgZ42D8LsbJAwFtdvvsWTLe1ha2YGM8lkUQWTg7Lw+lWS7Ig393g7V5TJe32eBrQ0cpD1dYe/me+oZMMLLW4f0wWurtw+b9UG6DxhA2a2AK6dDci3z1UYbp/XwA4urq7c80gmF9gZFPWAlxLMW69GUORp/K+TJR7v/QtN3GpguHcicl8+B0IuJCrK8vbXC6dSqhf2hofj0LQm0L25HoPquKHBzCtIKcr7Ez/C5n7tMOd2eYzffgb+wcEIWN0BJl86JEAi5AgBNXV17pMRQygUg6eiiq97BwSxWAUuQ/ch6P3GMQThUdEIXdAA6rJ7MYqhhMNbgDgFSa+F0DYyBrfx/2E0rT3RbfxKHL16DcvrJGDXhjO551xVHFHaAYgKvIqU3Lt+FZ6uIxr2nY4NpyMQMKMMbqzbgoB8Z8NUVJVBmenIKBjozGvwDcxCzYHj0aaSI6wtLaBLGV/uuVMjEXpHA+UqOHL9viYcnayQFRaAyHwDiiJTtkYpB2XE302Ato0tbG3zJhtYGWrI7sQoimKFl17fReBFX/heDMGDd2JkJ1zHJV9fXIp8ljuszHiIEN8AhIZHICzgBNb82QWzwl0xbHgjaEuf4RtRGl48fIDY2FgkpIhA6S/xiPv3g/hXuUdLRXE4t3U3vP2v4fqt24jwP40rcTkwsbfL3Xgo2aFDv0YQHfgT3WfsxSVuOa9eOox12/yLODIQIvrkRuw/E8j1VrdxK+wSzlx9BmVbB1i/7wqVYVmuPAR3d+Pvjb6IvBXFvcYVxKRxTarmsDQV4/rJAwi6GQafFQPQfORJvPvotQlp97keOeo+Ym5cwJphE3HCsBe8mgm4NhVU6NEPlZ+vR/8+i3AkIBzhIeewd/kehBfl70p4Rmje8zdonpmEnlP3ca9xDzHR3Abo1BEEPmV/1aFwZPu+RSI9uKKlSZqaH0/83zbSc7HkeNAu6mLNJy1NbRKYO5Nnh3G0Lfy19EhskRR2tDnzGPU0+vT1tZ1GkZ/kATmRtKyNO9mb8ElbS4cMbCtSq5HbKDL/wSVxMoVtGkbN3W3IQFePDK1cqcHE0/RKchfpASsD+uPIh4Mzmcd7kYnlQPKRHrDKIr/pdcjFxoj0tLRI19iBPDpMoSP3MqT3fU+UQKentaEK1vqkoyMg09K9aK/kAyIRJZyZQs3LmJAe34xcmg6nLUdnUR3j9rRbcjyJMun6lqHUqpoTWRrqkZ6xI3l2nUOnH+f/NET0wn8p9WvgQpb6usQ3tiP35gsoSLrIuQesDBqtovi8A3LZITSxnAG13pKY+z2I31LEluHUooItGerpksDEmkpX70YbpEezcw9YGbTbScmS+0pknaOhtoYffSbMz4En+R9ZjhmGUSDfd5+XYZjvhoWXYRQUCy/DKCgWXoZRUCy8DKOgWHgZRkGx8DKMgmLhZRgFxcLLMAqKhZdhFBQLL8MoqB8bXtFtbOzuiTKWBtDjG8O+0m8Yse16gatqGOY7o7e4fXgGOrgZQ6/KLFwXyuYXQfaFYbDX/ri6qXTSdcPka7lPlBPvg1mdPeBgLICBlRtajN6Hu/mLkJWQH9zzasOh+Ugs2e2Di+f2YU7jdBwc3gt/hxfj02OYbyCOP4qR9dzgOew4nisXf/VXrTgcO0+exMl806HZzWCoYQU7U+750oMxs11P7FHqhjVng+C3eziMzw5F51nBHxURLBHSa4v+Lan7qbO+IXU/ks7dEFPSGS9y0bOlrvsSZDWrcujOsoZkbN6MVt/NLaDGMN/krS8tnbKZQl+kU8CY0sSvPJMiv2XVEr+gvV2syL7fSXojJsrwGUhWBq1py4u8y1DF9HJXBzK1GUSnC1w5+q3+tX1eyn6JsC17cNX0d3TylFRx4MGg8Rys6KML70lTceoVcVvJ7Ri/8A48Zq3CQGeV3AcyzLfQq48Rs/ugqolKbjnhbyS8uRFLz5qjz7Am4HNPmPU6CanKfOjr5j07D/puFWH37hZuxhe9kltR/PjwZh1HPysj6BvaovbU+6g3ZSwa5hVx4glQf9ZK9Nc5hHHTd2LThDmI8JAE2uErazYxzHdEb3B62UbE1fVCf7fcOms6FaqgbPZlbNtyA2+4rIpSHiLwYiSSRKl4m1rCB3dkPfCPI06lZw/u053IQDq+oh9VMbGmtpskZU0/SPEfRxX5mqRt25F2fbZGK8N8q2wK/MZhszBmGdU3LE1/+qbK5kikUNiqLuRmok3aenzS1bOgCnWrkg3fkxbIam+XlB/f8/K0YWbviNLunmg1bBUWdVXHpR3HEfe+hBJBmJUFoeQ2T7lEhjYMU/JScXn5Klx3GYihdfJXaNNFpaF7EBn/BDE3b+LBs3gETakGZS1unf9Q6KxE/Gv7vLlykJaaDWWBPvJ2EeilN8Z77YDmsA2Y5nQRY4duQiw7GM38aOLnuLxqKmbtjPhsWV/x431Ysi8dzf/sCefPZJKnLoC5tRWM1J9i/9oToGYdUa9EqjDmI+uBfwhx8m26fD6AQsPCKSzwNG2f3pZKG5WnEeeSc4ujiRLoQHd7ElSaSFe4kUj27aXU0NiEGiy+8aHCP8N8C+FzunHpAl24cIZWdLYj3TJ9aOPZC+R7+eZHv7KRHTiWymhrkia/Ia2MK7jrlkHBE9yI7zaRgj9ZMTPpxb3rFH4tkM4dWEmjmzuRoVN32hNf8j8X80PDK4xeSo0t+KStqU18Uweq8psXrbycQLm7HEKK29qOrPnuNNYvRTpHUq3x5qK6ZGTgQdND8+9XMMxXkpyeFHxagVTTqCcdyxdEceIpGlbRnGwaLKCrkjOZ+Yif76aOFkbUbG3cR8dqpKQ/BaRHOgITsnOrS53GrKfAhO9zmpNVj2QYBfUv7/MyDPO1WHgZRkGx8DKMgmLhZRgFxcLLMAqKhZdhFBQLL8MoKBZehlFQLLwMo6BYeBlGQX2H8GYgPugwvK+/Q4n/3WX2JfzpYIiOe9/JZjDMf1cxw5uG6P2T0almaVjo64FvZI0yNYbgwLP3F+MCwmhsHDoAy4NTSj68DMO8V4zwEpK9R6PVoMOgVrOxw/s8Th/agDkD68NWnV0yzzA/nPTaoiLJogvD7EnQYAU9/Fxlmmw/GuWk/emlVtzEb7OVXsqK6QmfnqO5XaqTvSGf9K3KU/MRO+nW+6v9cujGxj7UuJIjmQl0Sc/EkTy7/0NXkmQPzrpIw+0NqMMe2SWDqRG0pIklmXhOpEuy+4heXKbFPetQaXM+6egIyKxUfZp3NVvaxjC/kmKEV0gxy+qTgXEtmnQhgT6NQwa9fBRL9+8eo2EuAqozO5Bi7t+n+9wUm5CSe91jZjjN9bSkal47KOjuQ7p3ZQv1dzck19GXKTe/ORSxeyFtOOJLwRFRFH5+DfVw4VPpUX65F+PnD292LO3oWooMK3jRqQTZ1kScTMd625B5g8l0NOQW3Y2OoECf4xT85HNbG4ZRbMW7GD/jLu0aXJ3MdYzIpbkX/XPiFiUXLBCQE0ZTKxhQ07VPPrlQOf30ILK3H0yn02QzSEyvtrUlA/vhdDFLNusjXJhnVCKDRqvokeTJ8sK76z75DK9IRmV60t64fBc6ix7S8voCsu9z9KOqCAzzKyreASsNZ3RbcwXRYTvgVfYptvTzQLn6E3H2eb4DVnKJ8OhGFF4l7kUPBzOYmUkmc7iOvoCM5FdIkpa0JbyN3I6xHerA3ckeNtZ2aL78HoQiIffoPCI8WN8LvXfqYMz+dehsm6+es5INOozsCr1jPVCh6u8Y/vdeBD/NlDUyzK/lK04VKYHv3AxDFx/BtbDtaP5qFYbO90OWrPVLxGKCskMfbLsSgpAQ2RQWhTs3lqO5JhfdpGMY8ftoXDYbgg3efggKvoKd/Z0K1GxWhl2LXmigfwv7twYi6aND2kowb70aQZGn8b9Olni89y80cauB4d6J7Mg388v5pvO8qlYN0dRdDUlPE/Chf1OGqgohIz2jQGCUYVXKHmoJ95Cgbg1bW9v3k421EbS4e+RE+cLvjTt6jumMak7WsLQ0gHJW5ifBU7LphNVbB0J5ax/0WX/nkw2HprUnuo1fiaNXr2F5nQTs2nAGr1l6mV9M0cNLyfDfuBDr953CBb9ABFzywe6FgzH7rBrqtqgFXdndoGIHNxctXN+6ANv8ruP2jVD4hjyUBky3YU+0N7iM6T0mYOflG7gXcwfXA71x8HKcdFisbGYNc7qHMwf9EBXpi00jf0PfbU/x6aBcCYLaM7FjrjsiJnTB2DMvcwMuisO5rbvh7X8N12/dRoT/aVyJy4GJvR202dks5lcj2/ctnPg1+YxvQBUcLchAV4t0BObkXON3Gr05jF7n/aaSTM6j4zS+ZXmyFOhw9zOjsoOP0RtZW+qt3fRX68pkb6RHOnxjsnKqSu1WRORWkBQn05VF7cndQkB8Yyeq028FeS9rS8b1l9GD/Aes8k4ViV/QqcEupGfRjJZHZXAvHEnL2riTvQmftLV0yMC2IrUauY0i3xZYQIb5BbDqkQyjoL5pn5dhmH8PCy/DKCgWXoZRUCy8DKOgWHgZRkGx8DKMgmLhZRgFxcLLMAqKhZdhFBQLL8MoKBZehlFQPza8Of4Y7awDLS2tD5O2I0ZczpbdgWG+M3Ec9g6pA1drQ+jpGcLGrQkGrwkt1iWjOfE+mNXZAw7GAhhYuaHF6H24myFr5BTWXlJ+fM/L00XzRf4ICgqSTScxrrKqrJFhvjd1WNUbgr93nMLFC4exuIMazozvhhmXilhxJT0YM9v1xB6lblhzNgh+u4fD+OxQdJ4VDGk+C2svSdJri34USYVJZ0vqd0paTq4AMSWd8SIXPVvqui9BVv8qh+4sa0jG5s1o9d18taoYpqRknaZBVgJqvSWRWwMLl+EzkKwMWtOWF3n3FtPLXR3I1GYQnc4ovL0k/UT7vDwYNJ6DFX104T1pKk69Iojjt2P8wjvwmLUKA53z1apimJIgTEbUnp3wU2uMjg0MuTWwcFmvk5CqzIe+bt69edB3qwi7d7dwM15UaHtJ+vHhpTfY3ckIAhMbOFdpjsHL/fE87z3xBKg/ayX66xzCuOk7sWnCHER4SALtUKCOFcN8g+yLGFXWGPr6lqg+PATlx09GG+uiRUGnQhWUzb6MbVtu4A233opSHiLwYiSSRKl4m0qFtpcoWQ/8g6RRwr1bdPNmFEWGXqC98zuTq8CYGi6/S/kryKb4j6OKfE3Stu1Iux6zGq5MSUunxLj7dPdGMHmvH0a1LMyowT83P1OL/HNSKGxVF3Iz0SZtPT7p6llQhbpVyYbvSQtuS9biwtpLzg8Ob0EpdLCbMfF/20TvdxG4fYTX50dQeV0uvHZdaDcLL/Nd5VD49EokqDSDIopxWEWcmUwJ8Y/pZZqQMs55kb15DzryTtbIKay9JPy7+7ziFCS9FkLbyPh9gTh66Y3xXjugOWwDpjldxNihmxArzG1jmJInQtq7dG6PzQCC/GkQP8flVVMxa2cEUj4z2uWpC2BubQUj9afYv/YEqFlH1NOWNXIKay8RshD/GOkPKPiCP4WEhdM1/+O02qsWWZrUonlh6bntogQ60N2e2wpOpCupRNm3l1JDYxNqsPhG7s+dMMy3So2hgHN+0nUwLOgc7VnQldyMnKj34WcfHW3ODhxLZbQ1SZPfkFbG5R/9ZdKLe9cp/FognTuwkkY3dyJDp+60Jz5vSFxYe8n5oeEVv9hFXaz5pKWpTQJzZ/LsMI62hb+WfWhCitvajqz57jTWT1YdkrLo5qK6ZGTgQdND3/8aGcN8NdGTzdTOWkDaWtqkZ2xPFZv2p/+djvukcxAnnqJhFc3JpsECuirrW6SE0bTQU490BCZk51aXOo1ZT4EJ+cbbhbWXIFY9kmEU1E90npdhmOJg4WUYBcXCyzAKioWXYRQUCy/DKCgWXoZRUCy8DKOgWHgZRkGx8DKMgmLh/TdRMoL3HcedIlZgKRrCu/CDOHQ9VXab+VX9C+HNQHzQYXhff8etZj9aFnwGWr4vfqdbZRauf3TFUmHtJSkH9zb0QudJuxGeKJbNKwwheWd7CGTLp8VvirVPCj42G7HnV2BY+0HY97hkKzcwP5dihDcV+zrpQ0vXHZNCs2TzCC+3toGRxzzcLOp6IozGxqEDsDw45V8IrzrqzQvBnehbODOuAj4te1dYe8nJvvEP+k97hHYb16KrzcdfQ0bcOfzTtwas9Kwx+Gz+ypo88H9fgxvR0Yja3w92ny0voo4Kf23HAvdAjB66GQ9Yfn9Zxe55legBdq7yKVapzJ+JppEVbGxtYamvJpvzscLaS4T4MXZM/gfP2y7A9HqCD7WTKAmX57VChcpdsT5GDNXPfMZK2ibS5bM104Pcql7Ktui+aCLcQudh1omkf2EjyfwIxQyvMmwb1IeBz0rsfviZoR69xqX5nVCnvB1M+HrQtyyHJn/uRrSk5mVezWa9Wlh0NwN+o5ygIxv+CdpuwytuDaNnG9HC0A2Tr+WNVcV4tKoRDPN6dvFDLG9gjFYbInBufhdUtTWEgXUV9NhwA+m5DwC9CceGwQ1QxkwAgZkz6vRZhsBXRR2WFoH4BfwW90RNR2MI9C3h2mQYNkcWbxQhjNqCtYEO6D+yCQT5q57xdKFnWgFe+8NxbUtX2HxD4S5l+z8wqr0STq45gMcl+PaZn0exe16Vcn+gR7lIrFsbjE+Ps3AJM6qBAQt3wMc/EGfXdobK0WEYuv4+RKpVMen8DURF7kU/e3VUnXQeN6KiEMVN4WvawSD/SvxFQkRyG4jRETWxxO8mLk+xweVJU7D3GRcf8RPsGtAei5LaYuX5CIT7/A+1H/2NLkP24FmJrMBCRC/vhm471dBvWwAirx3BZOdQjO84HmfeFjW+Itz19kFs2bZo7VQwnWqo2G82/mxoA40ifx7y6KDO702he+0Uzr1gfe+vqNjhhbIDug1qjOQ9q3BS0l3mxzNGvQGj0KNFbVR2K4+qrcbBq5E6oiPvcKu9BoxsHODoYAV9NSVoGtvCwdERjtzkYK5bjAUhZNkNwq7tw1Hb1hzl2rdBJRG3DxgjhCh6B1ZddsW45cPRqJw9HCq2wbSp7aF28RDOl8Q4PzsIG9bcQ8MZS9C3VmnYOVZDt3nj0DjlBA4F5h0HKEwabkbEQK9CRTh855KY6m5VUI5uIfJOjmwO8yspfni5hxi1HoYueqexcmeMpK/NR4Rnl5ZicEsPuDrawdraEX0Pp0AoKsmjJkqwrtsQLhq5t3hGf2Dv4+tYUFMV6bcicTfNH+MrmsPMzEw62Xbajhc5r/Dqzbd3veLn3EjheTKO9Xd+//xmzoNxKjUVSUnpRRs6i18jMUkMQxPDr/nwi4UnMIWx2hu8SmJFwH5FX7X+8DQ9MHiQO25u3Ij3B545ophV6N5xCR55TMPucwEIDvbHkpZ6stbvRQUa2lpQ53oxEolBOs3wP/8QhITIpmvXcStqP/p//tBs8YhFECtZoNuGwA/PHxKGG7dvYF07/SIV7ZYcN1DhFiUn+wcEikQQiZShqvq9NxPMv+Erv1VlOP7hhebv9mPD6WRZj0N4G3wR4bz6GDK2Bdy54bGlhRZEmQV7XW5lUiFkpGd82lOpqkCVMpGRIWuhZC54jwv07vJpOpSCZVYMHqaYw1ZyRDZvsjGDbgn84IKSKTfE136JO495sM7//LY2MM4rf1kYJSNYW6rj+YNH7w+yfS/iZ4/wWGQJWyv2axO/oq/eJPMMf4NXVz4unw1D7h4VD1rmltDPDMPxg1dx8+oJLO7ZHOMvFDispWIHNxctXN+6ANv8ruP2jVD4hjyEpAPn8cvCxSIRF/adRdyrR7g4vwdGHn5VtOEoR7VSV3R3jcOqAYOwyicM0TH3cDP0PA6dvsntaUpk4fXjB4iNjUX8qyxQdjKePohF7MPnSJWOqgtp16yLnl2sEDavJ0Zu8UXk3RjcuREEn/2+iC3ynoE6KnlWhCj0EkI/+eUpwpt7V3DR1xcXg+/jnTgHz65fgq/vJUQ8zR3iZLx8hAfc8sU+eYscysDLR9zyPohD4idbAsLrID/c0q0Gz7IsvL8kaRm6InlHezsaktuUa5RXC0/0YBU1MtAk3epzKUpS2VL4mI6PaUROxnoksChPLf/aRQcmVSPTHkc/qs6X8+g4jW9ZniwFOqQjMKOyg4/RG2mLiBK8J1AjJyPSFVhTte7L6OLGrmSS9/yiB7Ssvj5VmhH+fhkKynl8muZ0q0nOZpJq9YZkbu9GDSadpTeSEpU5YTS1gg5pamp+PAna027JAhTWLpFxlw5OaEdVHYxJT0ePjCwcqVKLvymkaOX2pcQJW6iNiS31OpL0UblRomy6PLIUaRd8fU09arr2CffpZNHZIdakVbBdy4oGncmSPYeM6BGta25MTsMuUJpsFvNrYdUj/xVpCBjrgTZ+7XH28gxUlh18KzlcD352OGr0vIdhAT7wKvWdD2sz/wp2JONfoY2ak5agW9pqDJ0d+NmK/N+CEn0wYeRBmIxehP4suL8s1vP+i9LC/4c2HU6j9dmz+LPEQpaJoPEe6PNkPE5v6wo7trv7y2Lh/VcR3iW/gaa+vvy/U/4KlJaMNyr60FeXzWB+SSy8DKOg2D4vwygoFl6GUVAsvAyjoFh4GUZBsfAyjIJi4WUYBcXCyzAK6l8IrwgvgjdiTMfacLE2gp62PtrvzLuskGF+nPTgSaiopwUd59HwL0axkZx4H8zq7AEHYwEMrNzQYvQ+3M13hVhh7SXlB4dXjGfHhqB+i1kINfod0zefwKVAPyxuqVfEC9kZpoQIo7F24makmpsXLwTpwZjZrif2KHXDmrNB8Ns9HMZnh6LzrGBI81lYe0mS/IXVD5N+mUaWMaJa8yMpXTbrAzElnfEiFz1b6rovgUTSeTl0Z1lDMjZvRqvvyrsIkGGKS0RPtrUj6zJDaffSVqTvNIr8inhJZ4bPQLIyaE1bXuRdzCmml7s6kKnNIDqdUXh7SfqhPW/OtaM4lVQHgwe4QVM27wMeDBrPwYo+uvCeNBWnXhHE8dsxfuEdeMxahYHO7C/smZJBr09j1pxw1Jo5BQ34xRvzZb1OQqoyH/q6eY/jQd+tIuze3cLNeFGh7SXpB4aXkHTvHl5pvoPv+N9Q1dkaFtalUaPDFByNlRXC4glQf9ZK9Nc5hHHTd2LThDmI8JAE2gHswjamZGQgdPFUnHQcj9ntzYodAJ0KVVA2+zK2bbmBN1wWRSkPEXgxEkmiVLxNpULbS9IPDK8Yae/eQZSZAl65vli8/yzOHZiDuq83o2/Ppe9/LoWnVxfTVw6E5q5BGHWlCuYv6wlbllymhAjvrMWELeoYOr8PHL9ivVJ28cLKeZ6InekJKwMB9K1rYcShOGTztKCtySu0vST9wPDyoKmlCWXjehjg1R51KpSFq0dHzJzSDoLbFxH4PK80K0GYlQWh5CZPmR3IYkqO+Cn2TF6KpC7z8WeFr71eUheVhu5BZPwTxNy8iQfP4hE0pRqUtRxR2lqyNSisveT8wPAqwaiUEwTPb+N20ofhgzCTC6qyFrTUc2NKL70x3msHNIdtwDSnixg7dBNiWdlhpiTkhOK070vcX9scptKf2tGG7dBzyHyyFk35Oig3MURWTJEjfo7Lq6Zi1s6Iz1Y64akLYG5tBSP1p9i/9gSoWUfU05Y1cgprLxGyA1c/RnogjXMTUJluq8n3xh2K8ttGQ6sZkX2vwyQ9OCdKoAPd7UlQaSJdSSXKvr2UGhqbUIPFNz4qYMcwX0X8huJuRFJkZN4UQZdn1yeBXU/aEnadohM+lOrLDhxLZbQ1SZPfkFbG5Z77yJVJL+5dp/BrgXTuwEoa3dyJDJ260554SYXEorSXnB8bXk7arZ00vIkrWQh0Sd/anX4bvYtuvpO0CCluazuy5rvTWL8U6X2JsujmorpkZOBB00O5NDNMiRJT4pbWnz1VJE48RcMqmpNNgwV0Nf95TWE0LfTUIx2BCdm51aVOY9ZTYEK+05iFtZcgVkmDYRTUD9znZRimJLHwMoyCYuFlGAXFwsswCoqFl2EUFAsvwygoFl6GUVAsvAyjoFh4GUZBsfAyjIJi4f0a9BInBpeDTfXJ8E+TzWOYH6zo4RU/wdqmfGhb98HxFNm8rECMddGBTrkJCClG9b2fVxaO9TSClvRysQ+TXp0liMlfwYQykZjwEq+fJ+B1dkn/aTghNfoApnSqCWdzfegJzODk2RGLAt/J2hkmV9HDS2lITdeGbs4FHL6Ym96MK/twMoUP3fRUpP1ClzdoNPkbgVev4qpsCt5WoJqHkjX6HbyLuKgNaKNfsuUCcu6sQ5cm/bA7uTpGrT6AE4c3Y3o7a+S8zWblcZmPSa8tKoqccJpepRx16lqLbHscoTfiVDo9uAw1GdKfKpj3phOSC27FSXRxXkeqXc6WjPV0SWDhSo2H76Lb7y+pEtNL/yXUw9ORjHW1SFNTM3fSsiOv81kkTthAzY2b0T9nt5JXfScy5huSfS0vOvAw95IqabtBeZp0Ne8SKxHFrWxIBtXnUpQwiy4Mc6aW87fRX56WZFp+KB0J3krdy5mSRY3JdDnvKsMvyqSjPQzJsMdROdcP59CNOdVIJ2+5TfvSqYJ3zImnU9M7koeDCelp65C+RVlqt+4uFelqTvEL2tPJnAxqzafrn600KKZnG1uQUYOlFHppMfXwsCNDfQuq0Gk5XUvJq1YopATfBdTNw56M+PpkWa4pDd92gyRXXYoer6FmLl60fmU7cjaxpSaL/ej89Hpka+JEHbfEypYxm+JOTaP2lW3JgG9ANhVb07iD96iECx8yJaAYPW86UtOUYd+qFez8DuHCkwvYd8EJ7ds7QCsnDWnZkjtxY0ujGhiwcAd8/ANxdm1nqBwdhqHr70taQK+PY8wfMxBq3g/L9+7HholNYakiQKPpmzCikqrkCYDsEMzpvx7qfx5H1K0j6IE9GDPvHIq2aylE5Jp1yJ58AKP4RzC670GU27AZ7ZN2Yk+QdAG/kQrKeB3FrehoXF/WHBqyuR+I8XSbF/puz0G7VT4IDg/B+T2L0L+qQdGGOCmXcfRiFmr374vynz75e8I7y9B1iB/Kz72AqMB5KHt1BsZti+Neneu5o5agS48D0B2yEwGRoTg41g6Bozth0oXcYbc46SgWX6iP3avq486Kvpj2dBgOT3fAxR2n8Jh7gvTgmegw6AJsxx1A8PUr2DlIDycHdcHcq7IigcxPo1jD5rQMFWg4/472pfyxfeo2BJZvj1a2WlADF+x0blDHM0a9AaPQo0VtVHYrj6qtxsGrkTqiI+9wseJWuvvBuPauKoYvHo8uLVrij0kLMMgtE8+yjGCfN/zkaaLu7H34X9syMLX0RLfWZfAu+jae5t/nlIuQ7doLY5s6wcwwE6g1BEOq2MBMPw1v3hXpCaTSD/4BQx1uX1466cJm8GnkRV9VYA4bW1vYGGt+pr6WGM/j4pGpVwo1PCuirLMLKtVpgeYVjYpUi0v0OAZx2WYoU1r/i/enTHP03L4LYxs4wLxsB/xeDbgbdZf7jLPgv34dHjWbhUU9PVHarhQ8es7HmPqvcOxQcO57yNZB8xF94WZpAu0UC3QY1xauFtzypbzBW3EKzqzeitROCzCvU1U42ZZG7QHzMbzyQxw5HPmhRAzzUyh6eMVcQDNUoaFhi7YdSuPy/gC4tW8BE00NqHP9YpokvFz/+uzSUgxu6QFXRztYWzui7+EUCEW5wVGxq4Dy2jG4cPou9whC6u3T8H2gg7LlrD+UdlUyRBmXvJKcPGhoaXLdSdb78HwZD4LSZWAmfbAybFzKQCcvBcWoOaDRZAH8Q0IQIpvOTasF2bigECpw7zUKTdPW4ze3WugyZhmORCQWeaUnoZALILfAhSRdyaQmGrvnFUTSRrtt8bi7vDHUxE9wI+olXh3qjVJmZjCTTmUx/GwaUl4mcdHmKDvA1Zn7TLnXUNIpg7J5O/OSz0cYi+s33+LJlvawzXu8RRVMDsrC61dJ0p6d+XkUPbwZqUgXqUJdXRmWbQahd7MB6NfCCEpq6lCnDG5ITRDFrEL3jkvwyGMadp8LQHCwP5a01JM9Abe+6FjDxjAHYfNqw9LIGNYNVoH6rsOC1l/uaX40JT1ruLi6wlU6uaC0hU6Rl0+lVC/sDQ/HoWlNoHtzPQbVcUODmVc+W8SsIGVTc5jgOWIfpBbr4JSyuja0ue8FJIZYrASb7psRmG/jE3aDG+avbg0d2f3lI+7xKnAZug9B+R4fHhWN0AUNuI008zMpcnjF6Vzvyn196mo8KJm3wz+H56CZgAeeujo3bJYciRbhbfBFhPPqY8jYFnB3sIKlhRZEmR+Gq2kXNmC3qBcOxDzDk7t38OjpXfjMaQ6LolbEVFWBKmUiI0O2alMybkU9lu5P/0x4uo5o2Hc6NpyOQMCMMrixbgsCijB04HE9ah2XHFzevhcPvqZiprIFSjlo4sW9J1C1toUtN7zPm2yMtQrfAClbc49XRvzdBGjb5H+8DawMv7ATzvwrihxekp4OUpOG9yNqucPm1DRAy9wS+plhOH7wKm5ePYHFPZtj/AVu31NGlM0Nf1+F48z5cNx7FI/7t24h9nlqkcPH45eFi0UiLuw7i7hXj3Bxfg+MPPyqxE+hiN88QtT167gum27cfykbtouQ8uwBYmNj8eAFN/AXv8OzB7FcT/kUydKxsRDRJzdi/5lArre6jVthl3Dm6jMo2zqgSCV7lcui3+SuMAychN86TsbGI2dx3ucIti0ai/+deV2E96mN+j07wCRoNnqM2YZL1+8i5s51XPE5gEsPi/Ap84zQvOdv0DwzCT2n7kNA1D3ERHMboFNHEPiUDZp/NkUPb1oqMriYqqnJZuThcb2xaoZ0n1ej/gQsG2QOv9GNULvtZFw0HYMVXmW5PcFcug27o61WIOZ3qI9atWqhVs1qKO9gA9eO63GrKAczVaviz/8NgcnZ3nBzqo0J0c2wfn7Tzxz1/TaZ5yegTo0aqCGbavXdgUeSdZ9e4cDASihfvjwqjzqDzNSTGF65PMpX6IB19yR3EOPVtR2YObAt6ntURY3mQ7iRRids3j4K5Yv0U0s8GLdcjjMHJsDj7THM7N8RHXqNxP9OJkCNr1akobtugwU4svEPGPjPRKc6VVG1dkv0mroTEclF2cRxr99mOQ4vbw3lU+PRtlYVVKvXBv1nH0R0Ucb9zA/1A6tHCnFjfm002FMZu84tQ1NTrisSpePx8ZFo3PsKfj8bgfnVi3ZYiGGY4hyw+mYiPHv0BNlKIryOf4iExEQ8e3gLwQG3kcx3Q0V79iuADFMcP7Rus+jJacwfNw+7/W7hSXIWlPXM4OzRGoOnTkXvSj/XEWeG+dmxousMo6B+4LCZYZiSxMLLMAqKhZdhFBQLL8MoKBZehlFQLLwMo6BYeBlGQbHwMoyC+sHhzcTDk7PRtWYpmAr0YeHaDCP33EGGrJVhvr8cPL3wP/SuWwbm+gKYlW6AwZsiinS9dZ6ceB/M6uwBB2MBDKzc0GL0PtzNtxIX1l5iJH9h9aOIn+2iTqUqUc8lh+lS4AXaPsKTjPUq0fSwbNk9GOb7EiefogFlXKnD3H3kG3iJ9k1qSJY6pWnExTTZPQqRFkSTKxtRmS7L6HT4bYq6vJ56uhqQ+4QgktZZLKy9BP3Q8EqqH6an5XsL6T40yIZPtZfEkJBrSzrjRS56ttR1XwKJpHfIoTvLGpKxeTNafTevYiTDfBvJOphXa5Oyr9DYsnyqMDWMW9sKl+EzkKwMWtOWF3nPIKaXuzqQqc0gOp1ReHtJ+sHDZh40JTWp8igpQ4nHg4aGBtfCg0HjOVjRRxfek6bi1CuCOH47xi+8A49ZqzDQmV11xJQMyTr44SIYZSgrceugpnqRLozJep2EVGU+9HXz7s2DvltF2L27hZvxokLbS9K/eMCKkOi9C6czqqNdM4vcBeEJUH/WSvTXOYRx03di04Q5iPCQBNrhQ4E6hikxhLd+O3H8mQvatCpdpHVMp0IVlM2+jG1bbuANl0VRykMEXoxEkigVb1Op0PYSJeuBf7j0qJX0m40VNV91m7Jk8/Kk+I+jinxN0rbtSLse5w6gGaakZd3fTp1LmVHteWFUxD1eTgqFrepCbibapK3HJ109C6pQtyrZ8D1pwW1J2frC2kvOvxLejOiN1MHRjDwnXqRX73c+8ojp9fkRVF6XC69dF9rNwst8Bzlx+6mPqwlV8DpJCV+xiokzkykh/jG9TBNSxjkvsjfvQUckP0shU1h7Sfjh4c28t5W6OJlRjbHn6MVnPjRx4kkaUNqAqk3cSQsbm5Jlq/V0nx2rYkpQTvwhGlDelNwHH6XH8tYt0TO6tHIKzdwRTm8/6WDyET6ibe1tyK7PcUr+3P0Ka/8GP/RifPHjA+jTuD/OGPfHwgkNYZy3T69shoqNKsGc9wwHe9XEgNtd4O03D1Xil6F53XmgCefhPbo8qxvMfDN64YM/m/6BPapdMH/ab7DM29FVMkb5+lVhLVvJcq6Mg1uTlXik4on/XT8LL9u8w0NZSIy5i6cpqUh6GAGfzcuw7X51rLywFV2kJUILay9B0gj/IJmn+pF53o905Z8EnWl/qpDitrYja747jfXL+1WwLLq5qC4ZGXjQ9NBU2TyG+XrZ/qPJWfsz6yC/OW1I+NA1ihNP0bCK5mTTYAFdzX+CVhhNCz31SEdgQnZudanTmPUUmJCv+y6svQSxMjgMo6D+xVNFDMN8CxZehlFQLLwMo6BYeBlGQbHwMoyCYuFlGAXFwsswCoqFl2EUFAsvwygoFl6GUVAsvAyjoFh4GUZBsfAyjIJi4WUYBcXCyzAKioWXYRQUCy/DKCgWXoZRUCy8DKOgWHgZRkGx8DKMgmLhZRgFxcLLMAqKhZdhFBQLL8MoKBZehlFQLLwMo6BYeBlGQbHwMoyCYuFlGAXFwsswCoqFl2EUFAsvwygoFl6GUVAsvAyjoFh4GUZBsfAyv5aUfehqJoBAUGAyKI2RF7MLb88JxLhyhp+2C0zRfscr0Le2yxazJPCII/s3wyg+cQoSYp/hnVh2Ow9PBQIrR5hqFNKulYHEB4+RnFMwFkrQMXOAJT/7G9uVZbe/HQsvwygoNmxmfi0pe9HJSAc6OgUmPUf86SsZNhfSnhOAMWX5n7brGOL3bZJh8Te2yxazJLCel/m1iN/i8d0nSPlkWKwKA1snmGumfLldOwPPYuLwOvvTYa+upTNsBFnf2M6GzQzzn8eGzQyjoFh4GUZBsfAyjIJi4WUYBcXCyzAKioWXYRQUCy/DKCgWXoZRUCy8DKOgWHgZRkGx8DKMgmLhZRgFxcLLMAqqmOFNQ/T+yehUszQs9PXAN7JGmRpDcOBZweurflZZONbTCFpaWh9NenWWIEbEtR7tDkPjXjieJbu7RJY3+pkZovtRbqY4Aeub82WP0wbfrBRqtJ+MI/fzP4D594nxOnwHJnerj/K2xuBr89Fo1SNurgy9xe3DM9DBzRh6VWbhulA2v0gIyeGbMaJlBdgYCmBoXx1d5l/A5yIgerAWzU25dUW/A/a8lc0sQcUIL7fQ3qPRatBhUKvZ2OF9HqcPbcCcgfVhq86T3UcxaDT5G4FXr+KqbAre1hO2Rb7MUhlW3Tcj6GowfHdORIXH69Bv0HrEKsr265dHeH1hHBo3Hofz6k0wft1R+Ab6Y11nc+nKLo4/ipH13OA57DieK3/FwDPnOlYNm4dbZUdgw4lT2D7SHpHzu2PYrmcfNg4S9AJHpv2N23xLaH2veEiu5y2aLLowzJ4EDVbQQ5FsVgE5VydReYPmtCFBLJuTTYFjSpNBu52ULH5JW9s6UL/VG6ibiylZ1ZlLvpfmU1N7E7JvtYZu50ie35lazt9Gf3lakmn5oXQkeCt1L2dKFjUm0+WU3GcUJ4fR+kH1qbQpn/imTlS791IKeClngT6RSUd7GJJhj6Pcvz6VeeQPMjDqScfyN2aeor6mBvTHEW6m6Cmta6ZPrhOCuXcmIaIna5uSwHowncmSzmD+bTnhNKOyPlUaH0hv81bD/N760tIpmyn0RToFcOsmv/JMisyRtRVRVloavX+IKJ5WN+aTcc9jlCGbJZHiO4JcLVvTmk1DyE6/Pe1+I2soQcXY9CjDxskOSlH7sOHSM+TI5hYLpcBnyXFU2LwRbRI2YMDYW+h+aD4qhGzH8XvcuBVCRK5Zh+zJBzCKfwSj+x5EuQ2b0T5pJ/YEZXObzSfYNaA9FiW1xcrzEQj3+R9qP/obXYbs+eyw5fsiZD4LwvbDN6DtURvlVWWzmX+V8NYJnHxYGf2GekDvcz2eXn2MmN0HVU1U8LUdohq326Qi+7ckF8pKPKhranwYxmZFYvnkfTAcOQ89bL+idy+iYoW31MC1WNE+B1vauKFCi2FYevI23kgyV2QiqDccgkGVrGDMfwPDNuPQxcUCxuopSJaW8yNku/bC2KZOMDPMBGoNwZAqNjDTT8ObdyKIondg1WVXjFs+HI3K2cOhYhtMm9oeahcP4fzrohcEST/4Bwzf1xbShc3g0+A2DUUkxsNVzWFuwO3vOHXGCZspOLSmK8wVa8/hl5UVE42HKlkIWdAONcrYwMKqFKq2GYM9t9Nk9yhZ2Xf2YHeYEVr97gE16RwRHm6dhDWZvbFgqCu+5za9eJsFDWd0W3MF0WE74FX2Kbb080C5+hNx9nlRuz2u9y5bGjo8HrfVU4WTqzNUJCs9N+UW4+FBULoMzKRLxd3XpQx3X8m/Odwd0m9F4m6aP8ZXNIeZmZl0su20HS9yXuHVm6J3vRpNFsA/JAQhsunctFrF+JCVuH3ejbh0ZiMGuQuRmG0KG32W3J8DIe1dGkQ5KRDadsHc3Wdw/sgStBEexOAucxFSwscV6eV5TOj1N151WIYZTfRy5704imkLY9Fyzlh4aElnfTdf0acrge/cDEMXH8G1sO1o/moVhs73w4843koiMUinGf7n/yF4Ideu41bUfvS3K3phLyU9a7i4usJVOrmgtIVO7hBKslHhNhIf9+FiiEkyNJLd5KjyLVG6akfMW9QLmsdmYeW1ovfbzPfEg6YWN3zVqYFeo7qgQaWycKnaGhNmdofd48u49KBYw8QvoqTLmPp7Dxy1mYsD/7SAiXQFeofLC2bAr9JUTG9mkLtOfUdfEd4PVK0aoqm7GpKeJoAb5AIqalClTKRnylZ/4RPcjH5TIAxfT9OhFCyzYvAwxRy2trYfJhsz6H7YCflqSvqGEIgS8CTfSEL05D4e5JjD2vLTjYNGtb7oXT4eu9afxXc4E8B8Bc1SzrBKjcbtxx++Q3FWJte5aEKnOId9hfE4vWQy5h2KRrpsVh5KDsSsdt2w23g6ju3oj7IasoacaJw9/xAvvQeilE7uaUhBq814kemNfuZa0O92CBmyu5aEooeXkuG/cSHW7zuFC36BCLjkg90LB2P2WTXUbVELutxdlG1dUVo9Csf2XcPzxGgc5LZ+s4OzSyy8qpW6ortrHFYNGIRVPmGIjrmHm6Hncej0TRRnj0b85hGirl/Hddl04/5L6T6vaqVWaG5yFf+MWoQTwZGICDyE2cOW4rZrd3Rx/8zWQdkJ3frWQfrx9Tj4tOjDdub7UXHvhC5lorB8zBKcuX4Xt4P3Y8qk3Uir3x2trLnVXfQCUZd94et7EeGPsyBOi8O1i7646HcLL/N9hdnn56L/1H8wZ+AUHE7Ktwanh2NRh45YklADQ7rb4PElb3h7c5OPH7dL54rhB64gKCjo/eS/vA0M1Wtj+vkg+M1vhLyclwjZUefCiV+Tz/gGVMHRggx0tUhHYE7ONX6n0ZvD6PX7Q/KZFL21L1W3FpCuYSlq8OdOOjWvDhnnnSpqY0R1l8aSKCeSZlY2zj39kuVDA21caVxQKl0Y5kBOIy9Tdv77CqNobnUj6nIgTfoKOY9P05xuNcnZjE+6eoZkbu9GDSadpTefOy3widxTRZqamh9NurUX0z2hpF1MbyM20dDGrmSpr0t6Jo7k2W0+nXsqOzHwyakiyamro9TLmk8e825+OH3A/KuyYo/Q+FbuZK2vRwJLV2ritZHCkmUrSOp+6iz4+PuXTgVOEYoe76VeZU3JodUqupXvixU9XEEN9D7zeJ3yNOnqp2tA1nmv73aqiNVtZhgF9U37vAzD/HtYeBlGQbHwMoyCYuFlGAXFwsswCoqFl2EUFAsvwygoFl6GUVAsvAyjoFh4GUZBsfAyjIJi4WUYBcXCyzAKioWXYRQUCy/za0nZh65mAggEBSaD0hh5Mbvw9pxAjCtn+Gm7wBTtd7wCfWu7bDFLAruel/m1iFOQEPsM0mKk+fFUILByhKlGIe1aGUh88BjJOQVjoQQdMwdY8rO/sb3otdYKw8LLMAqKDZuZX0vKXnQyyqvJnW/Sc8SfvpJhcyHtOQEYU5b/abuOIX7fJhkWf2O7bDFLAut5mV+L+C0e332ClE+GxaowsHWCuWbKl9u1M/AsJg6vsz8d9upaOsNGkPWN7WzYzDD/eWzYzDAKioWXYRQUCy/DKCgWXoZRUCy8DKOgWHgZRkGx8DKMgmLhZRgFxcLLMAqKhZdhFBQLL8MoKBZehlFQLLwMo6BYeBlGQbHwMoyCYuFlGAXFwsswCoqFl2EUFAsvwygoFl6GUVAsvAyjoFh4GUZBsfAyjEIC/g/12pLVH91SjAAAAABJRU5ErkJggg==;" parent="1" vertex="1">
          <mxGeometry x="400" y="120" width="239" height="434" as="geometry" />
        </mxCell>
        <mxCell id="OGMspnHS5nx6zsqmEPD3-4" value="Neuen Kassenbon erstellen" style="rounded=1;whiteSpace=wrap;html=1;" parent="1" vertex="1">
          <mxGeometry x="170.5" y="100" width="140" height="30" as="geometry" />
        </mxCell>
        <mxCell id="OGMspnHS5nx6zsqmEPD3-5" value="Kassenbon laden&lt;br&gt;(laut Aufgabenstellung nicht notwendig)" style="rounded=1;whiteSpace=wrap;html=1;" parent="1" vertex="1">
          <mxGeometry x="170.5" y="150" width="140" height="40" as="geometry" />
        </mxCell>
        <mxCell id="OGMspnHS5nx6zsqmEPD3-7" value="Dropdownliste&lt;br&gt;Produkte" style="rounded=1;fillColor=#F1F2F4;strokeColor=none;html=1;fontColor=#596780;align=left;fontSize=12;spacingLeft=10;sketch=0;container=0;" parent="1" vertex="1">
          <mxGeometry x="170.9" y="619.9981818181818" width="139.2" height="41.81818181818182" as="geometry" />
        </mxCell>
        <mxCell id="OGMspnHS5nx6zsqmEPD3-8" value="" style="shape=triangle;direction=south;fillColor=#596780;strokeColor=none;html=1;sketch=0;" parent="1" vertex="1">
          <mxGeometry x="258" y="637.9072727272728" width="12" height="6" as="geometry">
            <mxPoint x="-20" y="-3" as="offset" />
          </mxGeometry>
        </mxCell>
        <mxCell id="OGMspnHS5nx6zsqmEPD3-20" value="Kassenbon speichern" style="rounded=1;whiteSpace=wrap;html=1;" parent="1" vertex="1">
          <mxGeometry x="170.5" y="220" width="140" height="30" as="geometry" />
        </mxCell>
        <mxCell id="OGMspnHS5nx6zsqmEPD3-21" value="Anzahl Produkte" style="fillColor=none;strokeColor=none;html=1;fontSize=11;fontStyle=0;align=left;fontColor=#596780;fontStyle=1;fontSize=11" parent="1" vertex="1">
          <mxGeometry x="180.5" y="684" width="199" height="20" as="geometry" />
        </mxCell>
        <mxCell id="OGMspnHS5nx6zsqmEPD3-22" value="Eingabefeld Anzahl" style="rounded=1;arcSize=9;fillColor=#F7F8F9;align=left;spacingLeft=5;strokeColor=#DEE1E6;html=1;strokeWidth=2;fontColor=#596780;fontSize=12" parent="1" vertex="1">
          <mxGeometry x="180.5" y="705" width="129" height="25" as="geometry" />
        </mxCell>
        <mxCell id="pRmpR4fcdk8sH1HNiE_P-2" value="Eintrag hinzufügen" style="rounded=1;whiteSpace=wrap;html=1;" vertex="1" parent="1">
          <mxGeometry x="180.5" y="475" width="120" height="30" as="geometry" />
        </mxCell>
        <mxCell id="pRmpR4fcdk8sH1HNiE_P-3" value="Eintrag löschen" style="rounded=1;whiteSpace=wrap;html=1;" vertex="1" parent="1">
          <mxGeometry x="180.5" y="520" width="120" height="30" as="geometry" />
        </mxCell>
        <mxCell id="gGltedtJM7XP-Xdcrhnc-1" value="Verkäufername" style="fillColor=none;strokeColor=none;html=1;fontSize=11;fontStyle=0;align=left;fontColor=#596780;fontStyle=1;fontSize=11" vertex="1" parent="1">
          <mxGeometry x="205.5" y="270" width="70" height="20" as="geometry" />
        </mxCell>
        <mxCell id="gGltedtJM7XP-Xdcrhnc-2" value="Eingabefeld Name" style="rounded=1;arcSize=9;fillColor=#F7F8F9;align=left;spacingLeft=5;strokeColor=#DEE1E6;html=1;strokeWidth=2;fontColor=#596780;fontSize=12" vertex="1" parent="1">
          <mxGeometry x="175.5" y="290" width="130" height="40" as="geometry" />
        </mxCell>
      </root>
    </mxGraphModel>
  </diagram>
  <diagram id="um3dgLtN1UnDyvkf-LL2" name="Page-2">
    <mxGraphModel dx="1269" dy="794" grid="1" gridSize="10" guides="1" tooltips="1" connect="1" arrows="1" fold="1" page="1" pageScale="1" pageWidth="827" pageHeight="1169" math="0" shadow="0">
      <root>
        <mxCell id="Nm517t9_dK3Fu7DXnZ6L-0" />
        <mxCell id="Nm517t9_dK3Fu7DXnZ6L-1" parent="Nm517t9_dK3Fu7DXnZ6L-0" />
      </root>
    </mxGraphModel>
  </diagram>
</mxfile>
